<?xml version="1.0" encoding="UTF-8" standalone="no"?>
<svg
   xmlns:dc="http://purl.org/dc/elements/1.1/"
   xmlns:cc="http://creativecommons.org/ns#"
   xmlns:rdf="http://www.w3.org/1999/02/22-rdf-syntax-ns#"
   xmlns:svg="http://www.w3.org/2000/svg"
   xmlns="http://www.w3.org/2000/svg"
   xmlns:xlink="http://www.w3.org/1999/xlink"
   xmlns:sodipodi="http://sodipodi.sourceforge.net/DTD/sodipodi-0.dtd"
   xmlns:inkscape="http://www.inkscape.org/namespaces/inkscape"
   version="1.1"
   width="278.51666"
   height="59.444599"
   id="svg4156"
   sodipodi:docname="bits.svg"
   viewBox="0 0 417.775 89.166895"
   inkscape:version="0.92.4 (f8dce91, 2019-08-02)">
  <metadata
     id="metadata4162">
    <rdf:RDF>
      <cc:Work
         rdf:about="">
        <dc:format>image/svg+xml</dc:format>
        <dc:type
           rdf:resource="http://purl.org/dc/dcmitype/StillImage" />
        <dc:title></dc:title>
      </cc:Work>
    </rdf:RDF>
  </metadata>
  <defs
     id="defs4160" />
  <sodipodi:namedview
     pagecolor="#ffffff"
     bordercolor="#666666"
     borderopacity="1"
     objecttolerance="10"
     gridtolerance="10"
     guidetolerance="10"
     inkscape:pageopacity="0"
     inkscape:pageshadow="2"
     inkscape:window-width="1920"
     inkscape:window-height="1009"
     id="namedview4158"
     showgrid="false"
     inkscape:zoom="2"
     inkscape:cx="252.72974"
     inkscape:cy="53.802969"
     inkscape:window-x="1366"
     inkscape:window-y="0"
     inkscape:window-maximized="1"
     inkscape:current-layer="Layer1000"
     inkscape:snap-page="false"
     inkscape:snap-center="false"
     showguides="false"
     fit-margin-top="0"
     fit-margin-left="0"
     fit-margin-right="0"
     fit-margin-bottom="0"
     units="px"
     scale-x="2" />
  <g
     id="Layer1000"
     transform="translate(-2.1382956e-5,-2.8331)">
    <defs
       id="defs4097">
      <radialGradient
         id="grad1"
         cx="348.10342"
         cy="348.10342"
         r="696.20685"
         gradientTransform="matrix(1.1375929,0,0,0.87904907,-15.465704,55.971119)"
         fx="348.10342"
         fy="348.10342"
         gradientUnits="userSpaceOnUse">
        <stop
           offset="0%"
           stop-color="#000000"
           stop-opacity="1.0000"
           id="stop4092" />
        <stop
           offset="100%"
           stop-color="#000000"
           stop-opacity="1.0000"
           id="stop4094" />
      </radialGradient>
    </defs>
    <defs
       id="defs4106">
      <radialGradient
         id="grad2"
         cx="0.5"
         cy="0.5"
         r="1">
        <stop
           offset="0%"
           stop-color="#000000"
           stop-opacity="1.0000"
           id="stop4101" />
        <stop
           offset="100%"
           stop-color="#090909"
           stop-opacity="1.0000"
           id="stop4103" />
      </radialGradient>
    </defs>
    <g
       id="g5458"
       style="display:inline"
       transform="matrix(0.99832752,0,0,1,-178.96477,-262.174)">
      <g
         id="g6545">
        <g
           style="image-rendering:optimizeQuality"
           id="Layer1001">
          <g
             id="Layer1002">
            <defs
               id="defs4123">
              <linearGradient
                 gradientUnits="userSpaceOnUse"
                 y2="336.80338"
                 x2="247.87936"
                 y1="336.80338"
                 x1="141.6172"
                 gradientTransform="scale(1.2658391,0.78998981)"
                 id="grad3">
                <stop
                   offset="0%"
                   stop-color="#769422"
                   stop-opacity="1.0000"
                   id="stop4118" />
                <stop
                   offset="100%"
                   stop-color="#000000"
                   stop-opacity="1.0000"
                   id="stop4120" />
              </linearGradient>
            </defs>
            <g
               id="Layer1003" />
          </g>
          <g
             id="Layer1004">
            <defs
               id="defs4145">
              <linearGradient
                 id="grad4">
                <stop
                   offset="0%"
                   stop-color="#9cc42f"
                   stop-opacity="1.0000"
                   id="stop4139" />
                <stop
                   offset="100%"
                   stop-color="#000000"
                   stop-opacity="1.0000"
                   id="stop4141" />
              </linearGradient>
              <linearGradient
                 xlink:href="#grad4"
                 id="grad5"
                 x1="348.19662"
                 y1="343.29605"
                 x2="348.19662"
                 y2="420.38431"
                 gradientTransform="scale(1.2950375,0.77217843)"
                 gradientUnits="userSpaceOnUse" />
            </defs>
          </g>
        </g>
        <g
           id="g5502" />
        <path
           id="path5517"
           style="fill:#9cc42f;fill-opacity:1;stroke-width:0.00390625"
           d="m 269.6367,267.53362 v -1.2967 l 0.0127,-0.002 c 0.0175,-0.003 0.24384,-0.0184 0.4834,-0.0335 0.0698,-0.004 0.1665,-0.0106 0.21484,-0.0137 0.0483,-0.003 0.14854,-0.009 0.22266,-0.0136 0.0741,-0.004 0.17608,-0.0105 0.22656,-0.0136 0.0505,-0.003 0.12344,-0.007 0.16211,-0.01 0.40551,-0.0227 0.50822,-0.0281 0.63477,-0.033 0.21481,-0.008 0.25819,-0.01 0.53515,-0.0161 0.13858,-0.003 0.36182,-0.008 0.4961,-0.0116 1.02352,-0.0245 2.09833,-0.0265 3.15625,-0.006 1.30061,0.0254 1.4961,0.033 2.53711,0.0979 0.78842,0.0492 1.62491,0.11198 2.04101,0.15319 l 0.0488,0.005 0.002,1.24511 0.002,1.24512 h -5.3877 -5.38769 z m 0,-1.8e-4 c 0,-1.08839 8.5e-4,-1.29687 0.005,-1.29687 0.003,0 0.0271,-0.002 0.0537,-0.004 0.22212,-0.0176 1.15805,-0.0756 1.57772,-0.0978 0.0419,-0.002 0.10781,-0.006 0.14648,-0.008 0.0638,-0.003 0.17316,-0.008 0.33203,-0.0137 0.0568,-0.002 0.16431,-0.005 0.87695,-0.0213 0.67036,-0.0156 0.59035,-0.0155 2.86719,-0.006 0.26748,10e-4 0.50391,0.003 0.52539,0.004 0.0215,0.001 0.12959,0.004 0.24024,0.006 0.43628,0.009 0.80515,0.0188 0.98437,0.0273 0.66382,0.0314 1.88056,0.10968 2.51953,0.1621 0.18024,0.0148 0.54692,0.0468 0.60352,0.0527 0.0193,0.002 0.0365,0.004 0.0381,0.004 0.002,4e-5 0.003,0.55993 0.004,1.24421 l 9.9e-4,1.24414 h -5.3877 -5.38769 z m 0,0 c 0,-1.29407 10e-6,-1.29687 0.008,-1.29687 0.004,0 0.0953,-0.006 0.20214,-0.0135 0.51144,-0.0356 1.25763,-0.0803 1.66309,-0.0996 0.12856,-0.006 0.29909,-0.0114 0.57422,-0.0177 0.41341,-0.01 0.72947,-0.0172 0.80664,-0.0196 0.17137,-0.005 1.38647,-0.006 2.07498,-10e-4 0.40456,0.003 0.80643,0.005 0.89304,0.004 0.0866,-5.5e-4 0.15666,3.3e-4 0.15565,0.002 -10e-4,0.002 0.0406,0.003 0.0925,0.003 0.0519,1.4e-4 0.18048,0.002 0.28576,0.005 0.10527,0.003 0.26611,0.006 0.35742,0.009 0.34988,0.008 0.62354,0.0202 1.10351,0.0487 1.04567,0.0621 1.74106,0.11179 2.38195,0.17004 0.0941,0.009 0.17184,0.0156 0.17284,0.0156 0.001,0 0.002,0.55986 0.003,1.24414 l 9.9e-4,1.24414 h -5.3877 -5.38769 z m 9.7e-4,9.8e-4 9.8e-4,-1.2959 0.12109,-0.009 c 0.39101,-0.028 1.11394,-0.0724 1.54297,-0.0947 0.31005,-0.0161 0.43526,-0.0206 0.82617,-0.0294 0.14073,-0.003 0.32793,-0.008 0.41602,-0.01 0.0881,-0.002 0.21816,-0.006 0.28906,-0.007 0.20753,-0.005 2.17309,-0.005 2.57422,-8.2e-4 0.94872,0.0104 1.43523,0.02 1.80078,0.0355 0.46881,0.0199 1.74034,0.0997 2.36524,0.14842 0.2933,0.0229 0.8213,0.0687 0.83104,0.0721 0.004,0.001 0.005,0.25607 0.006,1.24403 l 9.9e-4,1.24232 h -5.3877 -5.3877 z m -9.7e-4,10e-4 v -1.29469 l 0.0166,-0.002 c 0.0478,-0.006 0.85825,-0.0583 1.31152,-0.084 0.59364,-0.0336 0.66207,-0.0363 1.38281,-0.0531 0.5293,-0.0124 0.65991,-0.0138 1.50391,-0.016 1.43584,-0.004 2.82182,0.0131 3.42188,0.0418 0.53432,0.0256 1.57631,0.0909 2.21093,0.13863 0.26766,0.0201 0.88065,0.0726 0.91308,0.0781 l 0.0127,0.002 9.9e-4,1.24202 9.9e-4,1.24201 h -5.3877 -5.38769 z m 0,4e-5 v -1.29464 l 0.0205,-0.002 c 0.053,-0.006 0.59196,-0.0414 1.01074,-0.0665 0.76531,-0.046 0.98006,-0.0551 1.61914,-0.0686 0.10527,-0.002 0.25381,-0.006 0.33008,-0.008 0.47145,-0.0125 2.26042,-0.015 3.04687,-0.004 1.07027,0.0147 1.37051,0.0225 1.83008,0.0473 0.89157,0.0482 1.88423,0.11488 2.4707,0.16602 0.27939,0.0244 0.42091,0.0371 0.43261,0.0391 l 0.0127,0.002 9.9e-4,1.24202 9.9e-4,1.24201 h -5.3877 -5.38769 z m 0,-2.8e-4 c 0,-0.71221 5.3e-4,-1.29493 10e-4,-1.29493 6.5e-4,0 0.0617,-0.004 0.13574,-0.01 0.45982,-0.0331 1.01669,-0.0671 1.56425,-0.0956 0.32006,-0.0166 0.50155,-0.0225 0.97656,-0.0315 0.11387,-0.002 0.26404,-0.006 0.33372,-0.008 0.42687,-0.0125 2.12803,-0.015 2.96511,-0.004 1.04141,0.0134 1.41939,0.0227 1.83789,0.0453 0.88864,0.048 1.80489,0.1088 2.41602,0.16021 0.20454,0.0172 0.50454,0.0439 0.52635,0.0469 l 0.0166,0.002 9.9e-4,1.24195 9.9e-4,1.24195 h -5.3877 -5.38769 z m 29.86789,12.90712 v -7.51853 h 1.30185 1.30184 l 0.28638,0.17437 c 0.57767,0.35171 1.25196,0.79227 1.80556,1.17969 1.97546,1.38244 3.68088,2.90353 5.05962,4.51272 0.63099,0.73646 1.20129,1.49859 1.68243,2.24837 0.15508,0.24167 0.41637,0.6699 0.47864,0.78445 0.0198,0.0365 0.0965,0.17567 0.17029,0.30936 0.71544,1.29526 1.28777,2.76424 1.60133,4.11006 0.0956,0.41029 0.17539,0.81551 0.22192,1.12695 0.0359,0.23987 0.0776,0.54656 0.0776,0.56996 0,0.0208 -0.11342,0.0211 -6.99373,0.0211 h -6.99373 z m -30.23672,69.50496 c -3.28738,-0.21742 -7.07689,-0.77293 -10.65625,-1.56213 -1.14957,-0.25347 -3.85101,-0.93363 -4.75,-1.19594 l -0.5,-0.1459 -0.0159,-7.10695 c -0.009,-4.24527 0.007,-7.10696 0.041,-7.10696 0.0313,0 0.24941,0.0873 0.48464,0.19395 0.73323,0.3325 3.00535,1.21383 4.07945,1.58237 2.72539,0.93513 5.08615,1.46727 7.12798,1.60675 1.16459,0.0795 4.87487,0.0351 5.78277,-0.0693 6.54649,-0.75262 11.8747,-3.56477 13.64437,-7.2013 0.97609,-2.00578 1.14647,-4.01143 0.48881,-5.75413 -0.26686,-0.70715 -0.7314,-1.54558 -1.20279,-2.17087 -0.47628,-0.63177 -1.49574,-1.65858 -2.12205,-2.13733 -2.95971,-2.26242 -7.43061,-3.77763 -11.76814,-3.9883 -3.46951,-0.1685 -5.93086,0.005 -8.50448,0.60065 -1.9602,0.45342 -4.51924,1.26428 -6.84822,2.16992 l -1.1875,0.46177 -0.016,-5.0221 c -0.009,-2.76216 -0.009,-7.28263 0,-10.0455 l 0.016,-5.02338 0.91394,0.36035 c 2.87816,1.13483 5.87917,2.05232 7.75846,2.37198 1.64492,0.27979 2.57434,0.34035 5.2651,0.34309 2.82771,0.003 3.57494,-0.0541 5.375,-0.40972 5.45116,-1.07698 9.6639,-3.52857 11.62569,-6.76553 0.32257,-0.53225 0.67904,-1.33056 0.78884,-1.76663 l 0.0691,-0.27427 h 14.14883 c 13.05525,0 14.14883,0.008 14.14883,0.10221 0,0.29312 -0.3607,1.79195 -0.62363,2.59137 -0.7033,2.13835 -1.89389,4.23955 -3.52657,6.22387 -0.73052,0.88785 -2.43172,2.58027 -3.4123,3.39467 -1.24821,1.03669 -2.19595,1.72082 -4.13858,2.98745 -0.43715,0.28504 -0.80885,0.54094 -0.82599,0.56867 -0.0171,0.0277 0.0452,0.0893 0.13858,0.13678 0.33666,0.17128 1.62221,0.96393 2.32599,1.43417 1.63532,1.09265 2.88111,2.09448 4.36787,3.5125 2.46229,2.34844 4.05712,4.72104 5.10742,7.59818 1.02629,2.81139 1.201,6.02639 0.48594,8.94253 -0.33416,1.36277 -1.08247,3.22953 -1.75582,4.38008 -0.19192,0.32795 -0.6391,1.00408 -0.99372,1.50252 -3.53334,4.96623 -9.71696,9.09801 -17.52419,11.70934 -4.88152,1.63275 -9.66564,2.55694 -15.25,2.94597 -1.47519,0.10277 -7.13703,0.11934 -8.5625,0.0251 z m 20.5288,-2.06983 c -0.0414,-0.0414 -0.0312,-0.14557 0.019,-0.19583 0.0744,-0.0744 0.20851,-0.12157 1.15872,-0.40749 1.72399,-0.51877 3.01718,-0.96469 4.48571,-1.5468 3.85611,-1.52852 7.26748,-3.46672 10.08732,-5.73123 0.82666,-0.66386 1.30713,-1.09135 2.05169,-1.82544 1.01285,-0.99862 1.88516,-1.99314 2.65135,-3.02283 0.33539,-0.45073 0.45301,-0.56841 0.56807,-0.56841 0.0876,0 0.16477,0.0327 0.16477,0.0697 0,0.0301 -0.42176,0.64168 -0.70905,1.02818 -1.22768,1.65163 -2.85463,3.29644 -4.69923,4.7508 -3.89318,3.06955 -9.05828,5.59662 -14.77741,7.22998 -0.95462,0.27264 -0.94893,0.27139 -1.00099,0.21933 z m 17.3506,-46.83818 v -2.01217 h 1.72896 1.72897 l -0.007,0.0107 c -0.0229,0.0358 -0.12537,0.18426 -0.13279,0.19238 -0.005,0.005 -0.0278,0.037 -0.051,0.0703 -0.47339,0.68172 -1.04853,1.40821 -1.65648,2.09238 -0.0499,0.0562 -0.09,0.10294 -0.089,0.10391 0.002,0.002 -0.24457,0.27091 -0.40831,0.44433 -0.20876,0.22109 -0.46502,0.48249 -0.68548,0.69922 -0.14502,0.14257 -0.37241,0.3616 -0.41142,0.3963 l -0.0166,0.0148 z m 1.14062,0.45665 c 0,-0.002 0.0321,-0.0395 0.0714,-0.083 0.12603,-0.1398 0.28931,-0.32552 0.38957,-0.4431 l 0.0371,-0.0435 0.001,0.0328 10e-4,0.0328 h 0.15822 0.15822 l -0.0596,0.0693 c -0.11939,0.13889 -0.35756,0.40963 -0.37973,0.43164 -0.006,0.006 -0.0209,0.007 -0.19215,0.007 -0.11869,0 -0.18527,-0.001 -0.18527,-0.004 z m -11.67509,5.31759 v -5.3164 h 6.02841 6.02842 l -0.0343,0.0372 c -0.0189,0.0205 -0.094,0.10221 -0.16708,0.18162 -1.52491,1.6577 -3.38993,3.22978 -5.52344,4.65585 -0.27967,0.18693 -0.56995,0.37584 -0.80469,0.52365 -0.0773,0.0487 -0.14859,0.0983 -0.15832,0.11015 -0.0219,0.0268 -0.0633,0.041 -0.11481,0.0396 -0.0485,-0.001 -0.0628,0.007 -0.0628,0.0372 0,0.0199 -0.01,0.0313 -0.0686,0.0784 -0.0832,0.0668 -0.21969,0.15744 -0.40897,0.27167 -0.18585,0.11217 -0.30333,0.19518 -0.38369,0.27112 -0.0718,0.0678 -0.0928,0.0981 -0.0782,0.11278 0.007,0.007 0.007,0.009 -4e-4,0.009 -0.005,0 -0.009,0.005 -0.009,0.0119 0,0.0128 0.0298,0.0272 0.0567,0.0272 0.0163,0 0.0163,-2.3e-4 10e-4,-0.0115 -0.008,-0.006 -0.0114,-0.0116 -0.007,-0.0117 0.005,-1.4e-4 0.0151,0.005 0.0234,0.0112 0.008,0.006 0.0268,0.0116 0.0411,0.0117 0.0202,1.9e-4 0.034,0.008 0.0625,0.0365 0.0201,0.02 0.0304,0.0341 0.0229,0.0315 -0.011,-0.004 -0.0137,-3.5e-4 -0.0137,0.0179 0,0.0288 0.021,0.0364 0.0658,0.0239 0.05,-0.014 0.085,-0.008 0.0904,0.0149 0.004,0.015 0.0398,0.0394 0.17219,0.11604 1.59273,0.92115 3.19354,2.02001 4.51929,3.10222 0.34606,0.28248 0.91002,0.76448 1.05842,0.9046 l 0.0194,0.0183 h -5.17755 -5.17756 z m 5.375,0.16076 c 0,-0.0347 0.32239,-0.30138 0.74117,-0.613 0.79214,-0.58945 1.10908,-0.8305 1.53617,-1.16833 1.50477,-1.19029 2.85183,-2.42331 3.90316,-3.5727 l 0.11247,-0.12296 0.19098,-9e-5 0.19099,-8e-5 -0.0235,0.0254 c -0.0129,0.014 -0.0813,0.0886 -0.15192,0.16591 -0.30866,0.3377 -0.73492,0.77435 -1.10116,1.12799 -1.3192,1.27383 -2.81456,2.46652 -4.50384,3.59224 -0.30505,0.20329 -0.87933,0.57284 -0.89018,0.57284 -0.002,0 -0.004,-0.003 -0.004,-0.007 z m 5.89844,6.28863 c -0.1756,-0.005 -0.19045,-0.009 -0.29788,-0.08 -0.12254,-0.0806 -0.22767,-0.17411 -0.81921,-0.72874 -1.58588,-1.48693 -2.61346,-2.31669 -4.42979,-3.57698 -0.37812,-0.26237 -0.52553,-0.36754 -0.74742,-0.53327 -0.23908,-0.17856 -0.4035,-0.31565 -0.39217,-0.32698 0.004,-0.004 0.16763,0.0894 0.42475,0.24153 2.4229,1.43319 4.54565,3.0415 6.26172,4.74424 l 0.26953,0.26743 -0.0586,-10e-4 c -0.0322,-7.1e-4 -0.12715,-0.003 -0.21094,-0.006 z m -3.23061,-33.88601 v -2.6582 h 1.29596 1.29595 l 0.0722,0.0671 c 1.00004,0.92942 1.89507,1.9037 2.63867,2.87234 0.0363,0.0473 0.0753,0.0971 0.0868,0.11069 0.0329,0.0392 0.16863,0.22212 0.30727,0.41418 0.35192,0.48751 0.68938,1.00475 0.99682,1.52787 l 0.07,0.11914 0.002,0.10254 0.002,0.10255 h -3.38379 l -3.38379,-10e-6 z m 0,0 v -2.6582 l 1.2959,4e-5 1.2959,5e-5 0.0449,0.0416 c 0.73755,0.68334 1.40371,1.3751 2.00619,2.08329 0.23786,0.27961 0.49149,0.59317 0.68088,0.8418 0.0327,0.043 0.0627,0.0809 0.0666,0.0842 0.0129,0.0111 0.22064,0.29251 0.36028,0.48806 0.33597,0.47047 0.65266,0.95843 0.94309,1.45313 l 0.0699,0.11914 0.002,0.10254 0.002,0.10255 h -3.38379 l -3.38379,-1e-5 z m 3.82776,-1.1123 c -9.2e-4,-5.4e-4 -0.009,-0.007 -0.0169,-0.0147 l -0.0152,-0.0137 0.0114,0.0147 c 0.006,0.008 0.0139,0.0146 0.0169,0.0146 0.003,0 0.005,-4.4e-4 0.004,-9.8e-4 z m 1.18316,1.35706 c -0.24804,-0.32017 -0.46406,-0.57637 -0.88083,-1.04471 -0.19541,-0.21959 -0.27283,-0.30146 -0.28682,-0.30329 -0.0132,-0.002 -0.12877,-0.11228 -0.37237,-0.35625 -0.63495,-0.63595 -1.00299,-0.96845 -1.8574,-1.678 l -0.0349,-0.029 0.22003,-3.5e-4 0.22002,-3.5e-4 0.1042,0.0913 c 1.08774,0.9526 2.09797,2.0027 2.94113,3.05719 0.16298,0.20384 0.32322,0.41071 0.32322,0.4173 0,0.003 -0.0571,0.004 -0.12696,0.004 l -0.12695,-2.1e-4 -0.12241,-0.15799 z m -24.7349,-10.47217 v -2.21909 l 0.0166,0.003 c 0.20163,0.0327 0.60827,0.10383 0.97363,0.17019 0.68462,0.12434 1.43386,0.27686 2.21485,0.45087 1.12729,0.25115 2.13156,0.50791 3.34723,0.85576 0.11578,0.0331 0.21114,0.0602 0.2119,0.0602 7.7e-4,0 0.002,0.65214 0.002,1.44921 l 9.9e-4,1.44922 h -3.38379 -3.38379 z m 3.4375,0.3368 v -1.88228 l 0.0498,0.0114 c 0.83406,0.19162 1.66467,0.40159 2.45606,0.62087 0.15836,0.0439 0.35348,0.099 0.70508,0.19905 0.12053,0.0343 0.59713,0.17739 0.79882,0.23981 0.63349,0.19606 1.33035,0.42675 1.95313,0.64656 0.19677,0.0695 0.72847,0.26137 0.7977,0.28793 0.004,0.002 0.005,0.17064 0.006,0.88042 l 10e-4,0.87849 h -3.38379 -3.38379 z m 3.10547,-0.73093 c -0.0321,-0.0105 -0.54141,-0.15556 -0.6836,-0.19477 -0.76042,-0.20971 -1.53576,-0.40188 -2.30859,-0.57218 l -0.11133,-0.0245 -0.001,-0.17851 c -5.6e-4,-0.0982 -1.7e-4,-0.17851 8.7e-4,-0.17851 0.004,0 0.38138,0.088 0.54648,0.12735 0.82341,0.1964 1.6866,0.42306 2.47022,0.64866 l 0.10641,0.0306 4e-5,0.17286 c 3e-5,0.13587 -0.001,0.17278 -0.005,0.17251 -0.003,-1.8e-4 -0.009,-0.002 -0.0146,-0.004 z m 0.0195,2.07251 v -2.41572 l 0.0283,0.008 c 0.10047,0.0282 0.5109,0.15063 0.73926,0.22056 0.82641,0.25305 1.74436,0.56049 2.51172,0.84122 0.0773,0.0283 0.15292,0.0555 0.16796,0.0605 0.0578,0.0192 0.52161,0.19445 0.77539,0.293 0.75555,0.29337 1.6134,0.65247 2.2793,0.9541 0.0709,0.0321 0.15922,0.0721 0.19628,0.089 l 0.0674,0.0306 9.9e-4,1.16729 9.9e-4,1.16728 h -3.38379 -3.38379 z m 3.32422,-0.94404 c -0.99872,-0.38426 -2.20688,-0.79424 -3.206,-1.08795 l -0.1181,-0.0347 -6e-5,-0.17285 c -3e-5,-0.0951 0.001,-0.17285 0.003,-0.17285 0.007,0 0.34515,0.10002 0.61638,0.18218 0.91767,0.27799 1.89378,0.60433 2.75781,0.922 l 0.0625,0.023 10e-4,0.19228 c 5.6e-4,0.10575 -3.2e-4,0.19216 -0.002,0.19202 -0.002,-1.5e-4 -0.0531,-0.0195 -0.11429,-0.0431 z m 0.11328,1.50819 c 0,-1.01836 6.6e-4,-1.85156 10e-4,-1.85156 0.003,0 0.4436,0.16544 0.58056,0.21801 0.63381,0.24327 1.25488,0.49642 1.84047,0.7502 0.0888,0.0385 0.1773,0.0765 0.19663,0.0845 0.0832,0.0343 0.50624,0.22436 0.76759,0.34486 1.14772,0.52919 2.24944,1.09753 3.28803,1.69619 l 0.0908,0.0523 10e-4,0.27854 10e-4,0.27853 h -3.38379 -3.38379 z m 2.13086,-0.58078 c -0.0749,-0.0343 -0.4297,-0.18901 -0.6211,-0.27078 -0.43848,-0.18735 -0.93131,-0.38855 -1.36718,-0.55817 l -0.14063,-0.0547 -10e-4,-0.1916 c -6.2e-4,-0.1177 4e-4,-0.1916 0.003,-0.1916 0.004,0 0.2358,0.0861 0.44952,0.16718 0.434,0.16472 0.90879,0.35343 1.34492,0.53454 0.35073,0.14565 0.77618,0.32869 0.77618,0.33393 0,0.002 -0.0857,0.003 -0.19336,0.003 h -0.19336 v 0.125 c 0,0.0976 -10e-4,0.12492 -0.005,0.12465 -0.003,-2e-4 -0.026,-0.01 -0.0518,-0.0218 z m 0.0566,1.88351 v -2.11132 l 0.19629,-6e-5 c 0.12817,-4e-5 0.19425,-0.001 0.19043,-0.004 -0.0208,-0.0134 0.0275,0.007 0.21363,0.0894 1.32457,0.58813 2.54963,1.20475 3.72973,1.87729 0.7735,0.44082 1.4823,0.87895 2.20703,1.36423 l 0.22656,0.15171 0.001,0.37195 9.9e-4,0.37195 h -3.38283 -3.38283 z m 4.36122,0.33263 c -0.0213,-0.0145 -0.43714,-0.2449 -0.68184,-0.37771 -1.09724,-0.59553 -2.42208,-1.25086 -3.54755,-1.75478 l -0.13183,-0.059 v -0.12622 -0.12621 h 0.20084 0.20085 l 0.15364,0.0679 c 1.08531,0.4796 2.1452,1.00061 3.14584,1.54639 0.28252,0.15409 0.67375,0.37409 0.6738,0.37888 10e-4,0.13236 -8.4e-4,0.45606 -0.003,0.45606 -0.002,0 -0.007,-0.002 -0.0107,-0.005 z m 4.65411,3.10357 c -0.82609,-0.66754 -1.85938,-1.40005 -2.91963,-2.06976 -0.47787,-0.30185 -1.05536,-0.64811 -1.55576,-0.93284 l -0.16477,-0.0937 -9e-5,-0.22959 -8e-5,-0.2296 0.0117,0.006 c 0.0471,0.0244 0.43464,0.25109 0.65431,0.38281 1.43102,0.8581 2.74673,1.77994 3.93946,2.76015 0.18769,0.15425 0.57422,0.4816 0.57422,0.4863 0,8.8e-4 -0.0989,10e-4 -0.21973,10e-4 l -0.21973,-3.3e-4 z m 2.65351,7.40435 V 279.776 h 0.63122 0.63122 l 0.055,0.0732 c 1.00911,1.34433 1.79411,2.72169 2.3716,4.16116 0.11816,0.29454 0.27085,0.71329 0.35151,0.96398 0.0171,0.0532 0.0335,0.10165 0.0365,0.10773 0.012,0.0246 0.13365,0.43243 0.18705,0.627 0.13653,0.49756 0.255,1.03495 0.33948,1.53989 l 0.008,0.0456 h -2.30557 -2.30557 z m 3.66811,1.54191 c 0,-0.005 -0.0869,-0.29933 -0.11936,-0.40391 -0.049,-0.15787 -0.14591,-0.44692 -0.20366,-0.60747 -0.04,-0.11129 -0.0479,-0.13858 -0.0492,-0.17125 -0.001,-0.0357 -0.009,-0.0576 -0.0931,-0.2682 -0.14474,-0.36265 -0.23909,-0.56969 -0.4632,-1.01639 -0.30425,-0.60643 -0.57908,-1.10224 -0.88804,-1.60204 -0.19928,-0.32239 -0.52476,-0.79608 -0.78666,-1.14491 l -0.0653,-0.087 h 0.1294 0.12939 l 0.10188,0.13673 c 1.03987,1.39562 1.83278,2.81441 2.40963,4.31167 0.0883,0.22926 0.25478,0.69974 0.29248,0.82671 l 0.008,0.0282 h -0.20134 c -0.11074,0 -0.20134,-9.6e-4 -0.20134,-0.002 z m -3.66811,3.76139 v -3.75926 h 2.03754 2.03754 l 0.0449,0.14501 c 0.38065,1.23012 0.60347,2.47839 0.66932,3.7496 0.0195,0.37673 0.0249,0.95717 0.0119,1.29544 -0.0228,0.5973 -0.0675,1.09809 -0.14754,1.65176 -0.0317,0.21923 -0.0954,0.60091 -0.11089,0.66429 l -0.003,0.0124 h -2.26988 -2.26987 z m 4.26834,0.44609 c -0.0193,-1.11146 -0.14061,-2.20033 -0.36061,-3.23584 -0.0624,-0.29389 -0.17003,-0.7325 -0.23138,-0.94327 l -0.008,-0.0262 h 0.20088 0.20088 l 0.0168,0.0511 c 0.0284,0.0863 0.0821,0.26461 0.12777,0.42405 0.28459,0.99314 0.46765,2.00976 0.54661,3.03552 0.0194,0.25225 0.0271,0.40442 0.0417,0.8245 l 0.003,0.0842 h -0.26711 -0.2671 z m -0.39583,4.18641 c 0,-0.003 0.009,-0.0445 0.0191,-0.0925 0.0756,-0.34637 0.1541,-0.78707 0.2071,-1.16187 0.0263,-0.18573 0.0595,-0.45074 0.0635,-0.50547 0.002,-0.0213 0.009,-0.0996 0.0167,-0.17401 0.0587,-0.57121 0.0913,-1.2059 0.0914,-1.78296 l 6e-5,-0.2555 h 0.26793 0.26792 l -10e-5,0.2555 c -4e-4,1.03531 -0.0999,2.02005 -0.30718,3.03973 -0.0596,0.29335 -0.1481,0.67092 -0.15888,0.67802 -0.009,0.006 -0.46744,0.005 -0.46744,-9e-4 z m -3.87251,1.99663 v -3.75927 h 2.08298 2.08299 l -0.003,0.0235 c -0.002,0.0129 -0.0119,0.0956 -0.0226,0.18368 -0.0504,0.41355 -0.12489,0.87043 -0.20952,1.2844 -0.0239,0.11685 -0.0493,0.2361 -0.056,0.26268 l -0.003,0.0135 h 0.23492 c 0.18277,0 0.23554,-0.002 0.23771,-0.007 0.0157,-0.0389 -0.0334,0.15584 -0.0964,0.38256 -0.48893,1.75869 -1.29249,3.4749 -2.40162,5.12929 -0.053,0.079 -0.11228,0.16662 -0.13182,0.19473 l -0.0355,0.0511 h -0.83928 -0.83927 z m 0,5.49148 v -0.0356 l 0.0761,-0.0901 c 0.8996,-1.06583 1.64378,-2.13646 2.2653,-3.25904 0.17658,-0.31892 0.42447,-0.80884 0.56845,-1.12344 0.0167,-0.0365 0.10263,-0.22539 0.191,-0.41985 l 0.16067,-0.35355 0.003,-0.0884 0.004,-0.0884 0.0262,-0.0691 c 0.0784,-0.20621 0.21101,-0.60577 0.29803,-0.89769 0.0928,-0.31133 0.18331,-0.65637 0.26046,-0.99299 l 0.0149,-0.0649 h 0.237 c 0.13035,0 0.237,0.001 0.237,0.003 0,0.006 -0.041,0.16527 -0.0726,0.28146 -0.19874,0.73044 -0.45282,1.45753 -0.75868,2.17104 -0.7373,1.71995 -1.78261,3.38453 -3.12827,4.98151 l -0.0687,0.0815 h -0.15695 -0.15695 z m -81.2866,-10.6554 v -8.51647 l 0.35156,-0.22822 c 1.73129,-1.12385 5.24671,-3.30133 5.32983,-3.30133 0.0173,0 0.17237,-0.0836 0.34449,-0.18582 0.96519,-0.57311 2.69158,-1.54617 3.89599,-2.19593 7.7736,-4.19371 15.05145,-6.94976 22.04688,-8.34892 1.96402,-0.39283 3.64501,-0.64252 5.8125,-0.8634 0.50703,-0.0517 1.21961,-0.12848 1.58352,-0.1707 1.29498,-0.15024 2.96577,-0.28342 4.60398,-0.36698 1.0151,-0.0518 4.83104,-0.051 5.82812,10e-4 0.84412,0.0442 1.93126,0.11495 2.51563,0.16378 0.64351,0.0538 1.66693,0.15427 1.74218,0.17107 l 0.0703,0.0157 v 8.54651 8.5465 l -0.23229,-0.17178 c -2.51889,-1.86281 -6.33901,-3.1696 -10.41857,-3.56399 -0.83623,-0.0808 -2.83726,-0.12072 -4.05248,-0.0808 -1.4544,0.0478 -2.39982,0.15957 -3.87923,0.45856 -3.41445,0.69005 -7.69162,2.23578 -12.51118,4.52143 -0.88973,0.42195 -4.25264,2.09283 -4.82813,2.39888 -0.15469,0.0823 -0.88594,0.46219 -1.625,0.84428 -1.39525,0.72133 -2.62036,1.37267 -3.98437,2.11835 l -0.79688,0.43563 v 0.43036 0.43036 l 3.21885,1.61256 c 5.03444,2.52212 6.88776,3.40074 9.57803,4.54073 0.62031,0.26285 2.41318,0.98346 3,1.20578 l 0.17187,0.0651 -13.88281,0.002 -13.88281,0.002 z m 4.35822,-6.61305 v -4.65602 l 0.63588,-0.38212 c 0.41351,-0.24848 0.6463,-0.38215 0.66568,-0.38224 0.0164,-8e-5 0.0497,-0.0116 0.074,-0.0256 0.0243,-0.014 0.23809,-0.13897 0.47508,-0.27765 2.85397,-1.67011 5.61793,-3.14349 8.34612,-4.44905 l 0.43536,-0.20833 h 4.25199 4.252 l -0.003,5.60364 -0.003,5.60364 -0.30333,0.14214 c -1.65131,0.77379 -4.0517,1.9792 -6.77376,3.4016 l -0.54741,0.28604 h -5.75303 -5.75303 z m 38.41153,66.28314 c -6.00613,-0.28066 -12.85718,-1.59103 -19.26633,-3.68499 -4.11094,-1.3431 -7.59605,-2.74554 -11.84241,-4.76547 -0.73012,-0.34731 -1.35738,-0.63147 -1.39392,-0.63147 -0.0365,0 -0.35322,-0.16522 -0.70375,-0.36714 -0.35054,-0.20193 -0.8764,-0.48676 -1.16859,-0.63296 -2.79372,-1.39785 -7.92545,-4.39138 -11.90313,-6.94356 l -0.25312,-0.1624 -3.03125,1.50846 c -7.0896,3.52804 -12.01835,5.5616 -16.42187,6.77555 l -0.45313,0.12492 4.9e-4,-5.29206 4.9e-4,-5.29206 0.76367,-0.40625 c 1.05486,-0.56115 2.91306,-1.65152 4.3291,-2.54025 1.86697,-1.17173 3.59317,-2.29936 3.59347,-2.3474 0.001,-0.16815 -5.73109,-3.86161 -7.76342,-5.00227 l -0.91995,-0.51633 -0.002,-11.04255 -0.002,-11.04255 0.85938,-0.48349 c 1.26884,-0.71384 2.93773,-1.76351 5.03374,-3.16603 2.2937,-1.53481 2.85688,-1.94823 2.85688,-2.09718 0,-0.17349 -0.26363,-0.38904 -1.21875,-0.99645 -2.47285,-1.57263 -5.17248,-3.15991 -6.67115,-3.92239 l -0.85865,-0.43686 -7.2e-4,-4.17188 -7.3e-4,-4.17187 h 4.44161 4.4416 l 1.44902,0.58601 c 2.61443,1.05733 5.3207,2.28887 8.56178,3.8962 0.99014,0.49103 1.83163,0.89279 1.86998,0.89279 0.0383,0 0.87354,-0.53058 1.85599,-1.17907 1.80812,-1.1935 4.2678,-2.74869 5.82675,-3.68412 l 0.85298,-0.51181 h 37.68993 37.68993 l 0.37651,0.42187 c 0.61407,0.68809 1.0493,1.25213 1.5741,2.03996 0.48105,0.72217 1.21062,2.09116 1.48593,2.78824 l 0.13578,0.34381 -0.0166,5.90619 -0.0166,5.90618 -0.29916,0.6618 c -1.57045,3.47411 -4.40407,6.63919 -8.88834,9.92805 -0.48125,0.35296 -0.87568,0.67401 -0.8765,0.71344 -8.2e-4,0.0394 -0.0497,0.0679 -0.10871,0.0631 -0.059,-0.005 -0.0934,0.0137 -0.0766,0.0409 0.0168,0.0272 -0.18973,0.17866 -0.45901,0.33652 -0.45264,0.26537 -0.62762,0.46719 -0.39063,0.45056 0.0544,-0.004 0.0923,0.0272 0.0841,0.0689 -0.009,0.0446 0.0245,0.0608 0.0807,0.0392 0.0527,-0.0202 0.0874,-0.007 0.0774,0.0304 -0.01,0.0369 0.46777,0.40144 1.0617,0.81014 1.80975,1.24533 2.98807,2.19469 4.52937,3.64931 0.83315,0.78629 0.86682,0.81037 1.10882,0.7929 0.29515,-0.0213 0.44241,0.10295 1.30623,1.10219 0.99308,1.14876 1.76094,2.22886 2.46978,3.47406 l 0.41217,0.72407 v 7.14493 7.14493 l -0.22733,0.41225 c -0.46748,0.84775 -0.85909,1.4655 -0.88319,1.3932 -0.0137,-0.0411 -0.0879,-0.0747 -0.16499,-0.0747 -0.104,0 -0.23516,0.13286 -0.50901,0.51562 -0.92636,1.2948 -2.54252,3.03857 -3.90298,4.21118 -4.0433,3.48501 -9.36975,6.22058 -15.68353,8.05479 -0.77947,0.22645 -0.91309,0.28357 -0.93019,0.39767 -0.014,0.0934 0.014,0.13449 0.0937,0.13742 0.17915,0.007 -0.35778,0.15942 -1.5245,0.43395 -3.76949,0.88694 -7.40964,1.40568 -11.39303,1.62356 -1.02674,0.0562 -5.62129,0.0701 -6.6875,0.0202 z m 0.78125,-13.82577 c 5.71175,-0.68127 10.43431,-2.90156 12.77292,-6.00513 1.17604,-1.56072 1.83847,-3.99963 1.5444,-5.68609 -0.62759,-3.59912 -3.93407,-6.64904 -9.092,-8.38654 -1.81275,-0.61065 -3.89515,-1.0432 -5.69407,-1.18277 -1.21222,-0.094 -4.56734,-0.0951 -5.65625,-0.002 -5.13762,0.44024 -12.12709,3.01233 -23.07761,8.49245 -2.52729,1.26476 -2.7069,1.3655 -2.76876,1.55292 -0.0405,0.12276 -0.0456,0.27977 -0.0131,0.40517 0.0485,0.18733 0.16174,0.26531 1.33126,0.91701 11.19178,6.2365 18.03893,9.11123 23.55945,9.8913 1.50017,0.21198 5.33002,0.21387 7.09375,0.004 z m -1.68643,-35.00774 c 1.862,-0.11945 3.13375,-0.31767 4.87393,-0.75966 5.49025,-1.39448 9.54469,-4.36184 10.77697,-7.88744 0.2575,-0.73673 0.37928,-1.47166 0.37928,-2.28882 0,-1.95281 -0.76698,-3.72529 -2.30573,-5.32844 -2.59842,-2.70718 -6.80925,-4.47189 -11.9885,-5.02425 -1.20699,-0.12872 -4.22631,-0.14681 -5.42452,-0.0325 -3.92682,0.37461 -8.49659,1.83975 -14.75207,4.72974 -2.55624,1.18097 -7.66502,3.80707 -11.25761,5.78682 l -0.38468,0.21199 0.01,0.42085 0.01,0.42085 3.90625,1.95899 c 4.88171,2.44818 7.41211,3.61831 10.5,4.85552 2.89515,1.15998 5.56814,2.0232 7.625,2.46243 2.0637,0.44069 5.4426,0.64006 8.03232,0.47393 z m 41.33576,33.34875 c 0.5504,-0.83046 0.9238,-1.4674 1.23431,-2.10546 0.79029,-1.62395 1.28206,-3.44514 1.44296,-5.34375 0.052,-0.61399 0.0671,-1.62723 0.0328,-2.20313 -0.15213,-2.55307 -0.84044,-4.83869 -2.06805,-6.86719 -0.83302,-1.37648 -2.12716,-3.00818 -3.51311,-4.42948 l -0.26684,-0.27364 h 0.29699 0.29699 l 0.25562,0.26974 c 3.24542,3.42471 5.0024,7.07256 5.31872,11.04276 0.0342,0.42896 0.0471,1.4092 0.0244,1.85156 -0.10196,1.98648 -0.53276,3.77425 -1.36489,5.66406 -0.30254,0.6871 -0.83503,1.67801 -1.24056,2.3086 l -0.0829,0.1289 h -0.19746 -0.19746 z m -113.77611,7.58691 c -1.31048,-0.0361 -3.22596,-0.3872 -4.85095,-0.88921 -1.09485,-0.33823 -1.9695,-0.68775 -3.03968,-1.21468 -2.04632,-1.00756 -3.66938,-2.17237 -5.1876,-3.72292 -2.42936,-2.48111 -3.95974,-5.50245 -4.43784,-8.76142 -0.18099,-1.23375 -0.19175,-2.78644 -0.0281,-4.0625 0.36374,-2.83691 1.62267,-5.6805 3.5418,-8 0.41087,-0.49659 1.03406,-1.1649 1.45347,-1.55871 l 0.38677,-0.36316 h 20.25296 20.25296 v 10.11296 10.11297 l -0.0703,-0.0458 c -0.0387,-0.0252 -0.38199,-0.24524 -0.76293,-0.48904 l -0.69262,-0.44326 -1.97925,0.99572 c -2.07752,1.04516 -3.11351,1.55287 -4.58863,2.24874 -7.82867,3.69309 -13.33461,5.54172 -17.84375,5.99109 -0.43895,0.0437 -1.89457,0.11706 -2.04688,0.10309 -0.0344,-0.003 -0.19609,-0.009 -0.35937,-0.0139 z m 0.78575,-9.32339 c 1.62084,-0.16044 3.43881,-0.76727 5.72706,-1.91169 2.19688,-1.09872 4.52437,-2.48104 8.15575,-4.84378 0.4487,-0.29194 0.86241,-0.56604 0.91936,-0.60913 l 0.10355,-0.0783 -0.19549,-0.14225 c -0.56265,-0.40941 -3.33062,-2.24203 -4.66786,-3.09051 -3.13235,-1.98747 -5.47036,-3.2115 -7.39049,-3.8692 -0.93893,-0.32161 -1.7215,-0.47247 -2.84479,-0.54843 -0.76235,-0.0515 -1.87215,0.049 -2.74909,0.24905 -1.61888,0.36931 -3.11136,1.16073 -4.21485,2.23501 -0.74398,0.72428 -1.15245,1.27 -1.56766,2.09441 -0.49974,0.99224 -0.72183,1.91923 -0.72251,3.01563 -6.6e-4,1.06773 0.21289,1.97826 0.69259,2.95312 0.59247,1.20402 1.60559,2.32299 2.81384,3.10781 0.37917,0.2463 1.18997,0.64957 1.67046,0.83084 1.25154,0.47217 3.05088,0.72813 4.27013,0.60744 z M 180.2161,330.6052 c -0.50213,-1.3554 -0.79065,-2.6545 -0.91438,-4.11719 -0.0738,-0.87222 -0.0245,-2.34063 0.10931,-3.25818 0.36995,-2.53649 1.39821,-4.99099 2.98177,-7.11759 2.63837,-3.54315 6.71844,-6.12984 11.3886,-7.22018 l 0.37142,-0.0867 -0.29841,-0.14981 c -0.20796,-0.1044 -0.47209,-0.19777 -0.87142,-0.30807 -3.39639,-0.93812 -6.32218,-2.60501 -8.63672,-4.92053 -2.45601,-2.45705 -3.99412,-5.4351 -4.49576,-8.70455 -0.11936,-0.77794 -0.15368,-1.27354 -0.15368,-2.21875 0,-0.94456 0.0343,-1.43987 0.15351,-2.21875 0.0742,-0.48494 0.29699,-1.54656 0.35836,-1.70798 l 0.0279,-0.0733 h 4.81512 c 3.84387,0 4.81034,0.008 4.79146,0.0391 -0.013,0.0215 -0.0847,0.13384 -0.1594,0.24967 -0.34254,0.53148 -0.72829,1.4623 -0.88773,2.14215 -0.0823,0.35088 -0.11346,1.33676 -0.0592,1.87311 0.12355,1.22182 0.57553,2.57618 1.14527,3.43181 0.68573,1.0298 1.81596,1.98327 3.09043,2.60711 0.90211,0.44158 1.72367,0.68874 2.875,0.86492 0.30321,0.0464 0.55747,0.0572 1.32813,0.0566 0.83332,-6.5e-4 1.01007,-0.01 1.40625,-0.0715 0.70235,-0.10962 1.11787,-0.21105 1.8125,-0.44244 2.32725,-0.77524 5.0633,-2.27665 9.14944,-5.02075 2.20489,-1.48072 2.98515,-2.03481 3.05465,-2.1692 0.10575,-0.20449 -0.0837,-0.40372 -0.84916,-0.89303 -0.78191,-0.49983 -2.25106,-1.40622 -3.32368,-2.05054 -0.54141,-0.32522 -0.99024,-0.59711 -0.9974,-0.60419 -0.007,-0.007 4.00415,-0.0129 8.91402,-0.0129 h 8.92704 l 0.008,21.26562 0.008,21.26563 H 214.18642 203.0875 l 0.69267,-0.35512 c 2.03005,-1.04075 4.36899,-2.43335 7.38017,-4.39416 0.42969,-0.27981 0.93242,-0.60676 1.11719,-0.72657 0.18476,-0.1198 0.33594,-0.22945 0.33594,-0.24366 0,-0.035 -0.33918,-0.26896 -1.95313,-1.34746 -5.0499,-3.37452 -7.96339,-4.99549 -10.46875,-5.82449 -0.83172,-0.27521 -1.61922,-0.42121 -2.64163,-0.48975 -0.47529,-0.0319 -0.63468,-0.0293 -1.20312,0.0191 -0.36039,0.0307 -0.81154,0.0821 -1.00257,0.11415 -1.32748,0.22285 -2.57299,0.70837 -3.63364,1.41644 -0.57163,0.38162 -0.8468,0.60783 -1.332,1.095 -0.61108,0.61357 -1.07633,1.2615 -1.43763,2.00212 -0.99552,2.04071 -0.9153,4.33777 0.22051,6.31463 0.45967,0.80007 1.19527,1.64594 1.91289,2.19967 0.1418,0.10942 0.25782,0.20369 0.25782,0.20951 0,0.006 -2.46523,0.0106 -5.47829,0.0106 h -5.47828 z m 1.83938,-30.02821 c -1.09608,-1.70778 -1.88946,-3.81279 -2.19421,-5.82176 -0.13139,-0.86619 -0.14435,-1.07014 -0.14385,-2.26418 5.1e-4,-1.22376 0.0209,-1.50964 0.17291,-2.42187 1.00219,-6.01513 5.62669,-11.13271 12.1391,-13.43344 0.91568,-0.32349 2.00249,-0.61991 2.98437,-0.81395 0.49731,-0.0983 0.78107,-0.14438 2.04688,-0.33252 1.97228,-0.29315 4.3184,-0.21225 6.8401,0.23585 4.99037,0.88677 10.98822,3.14951 19.28094,7.27388 l 1.43355,0.71297 1.45708,-0.96496 c 1.45581,-0.96412 3.01613,-1.97471 3.0489,-1.97471 0.01,0 0.0209,4.50703 0.0253,10.01563 l 0.008,10.01562 h -23.47677 -23.47677 z m 16.09248,-0.82229 c 0.87637,-0.0965 1.43073,-0.21627 2.24046,-0.48425 1.97911,-0.65502 4.48227,-1.97543 7.68788,-4.05536 1.62609,-1.05506 4.29975,-2.88569 4.46094,-3.05435 0.0626,-0.0655 0.10156,-0.13822 0.10156,-0.18961 0,-0.14827 -0.18279,-0.34411 -0.54687,-0.58591 -0.5018,-0.33325 -2.34928,-1.48132 -3.48438,-2.16528 -5.13816,-3.09604 -8.32554,-4.43023 -10.75432,-4.5016 -1.0487,-0.0308 -2.4148,0.16984 -3.46876,0.50951 -2.63802,0.85018 -4.64597,2.73251 -5.4142,5.07551 -0.2222,0.67765 -0.28118,1.03714 -0.27947,1.70332 0.003,1.29452 0.28125,2.48429 0.85546,3.66214 0.67509,1.38476 2.19113,2.70314 3.93929,3.42567 1.39019,0.57458 3.16141,0.82539 4.66241,0.66021 z m 50.25359,-23.52708 0.006,-5.45053 0.55243,-0.2065 c 5.72834,-2.1413 11.1741,-3.43242 16.52862,-3.91873 0.14584,-0.0132 0.50381,-0.0531 0.79549,-0.0885 2.09168,-0.25407 4.01832,-0.39787 6.24243,-0.46592 0.93458,-0.0286 3.65875,-0.0146 4.47466,0.023 2.51951,0.11606 4.47934,0.29727 6.72856,0.62214 0.88199,0.12739 2.72253,0.443 2.90025,0.49732 0.0367,0.0112 0.0387,0.37454 0.0387,7.22503 v 7.21321 h -4.11034 -4.11034 l -0.2925,-0.12344 c -2.28036,-0.96237 -4.92182,-1.57747 -7.67294,-1.78675 -1.49064,-0.11339 -3.37202,-0.10091 -4.90555,0.0326 -2.06691,0.17987 -4.61897,0.77492 -7.33574,1.71042 l -0.48565,0.16722 h -4.67959 -4.6796 z m 10.73944,52.54189 c -1.85508,-0.86073 -2.27072,-3.32628 -0.79651,-4.72494 1.83712,-1.74299 4.85352,-0.44569 4.85352,2.08742 0,1.17102 -0.7035,2.23561 -1.77175,2.68116 -0.62697,0.26151 -1.67054,0.24158 -2.28526,-0.0436 z m 12.19053,2.04504 c -0.95769,-0.26847 -1.61734,-0.68654 -2.35257,-1.491 -2.53349,-2.77205 -0.95172,-7.26099 2.80315,-7.95512 3.17456,-0.58685 6.12312,2.35069 5.56125,5.54046 -0.19876,1.12838 -0.66421,1.97798 -1.5153,2.76595 -1.21993,1.12944 -2.95993,1.57046 -4.49653,1.13971 z m 1.59311,-35.57618 c -1.53516,-0.20743 -2.99411,-1.32267 -3.69537,-2.8248 -0.28978,-0.62074 -0.33587,-0.88149 -0.33698,-1.90658 -0.001,-1.06874 0.0372,-1.2688 0.38394,-2.00036 1.76551,-3.72537 6.9571,-3.74189 8.71656,-0.0277 0.36068,0.76137 0.39821,0.95252 0.39821,2.0281 0,1.03072 -0.0448,1.28318 -0.33956,1.91221 -0.97823,2.08777 -2.86426,3.12488 -5.1268,2.81917 z m -12.65864,-1.71624 c -1.07489,-0.49308 -1.68099,-1.46604 -1.68358,-2.70264 -0.004,-1.85339 1.68148,-3.1853 3.5327,-2.79182 1.33365,0.28346 2.21338,1.41553 2.21338,2.84826 0,0.71387 -0.0567,0.92401 -0.40625,1.50616 -0.73737,1.22796 -2.36099,1.73422 -3.65625,1.14004 z m -68.99764,47.10064 c -5.59937,-1.99822 -9.6586,-6.3653 -11.21798,-12.06877 -1.87663,-6.86384 2.73928,-14.9491 10.33089,-18.09565 l 3.88261,-1.60925 -4.18823,-2.01015 c -11.43267,-5.48715 -13.44859,-18.36511 -4.12427,-26.34638 4.13522,-3.53959 8.71753,-4.87056 15.30515,-4.44551 5.83199,0.3763 9.48607,1.45367 17.862,5.26644 l 5.3981,2.45724 6.62272,-3.99439 6.62272,-3.99438 0.20151,7.11544 c 0.11083,3.91349 0.45555,7.11543 0.76603,7.11543 0.31049,0 0.56452,0.4773 0.56452,1.06066 0,0.58336 -0.26516,1.06066 -0.58925,1.06066 -0.32409,0 -0.58926,7.15946 -0.58926,15.9099 0,10.72629 0.24398,15.90991 0.74884,15.90991 0.41186,0 0.53019,0.35377 0.26296,0.78616 -0.26723,0.43239 -0.0474,1.06391 0.4886,1.40339 0.77504,0.4909 0.72629,0.61943 -0.23823,0.62805 -1.0502,0.009 -1.2397,0.95653 -1.41421,7.06842 l -0.20151,7.0576 -7.02787,-4.11848 -7.02787,-4.11848 -6.40716,2.99102 c -12.12981,5.66251 -19.923,7.15078 -26.03081,4.97112 z m 9.52426,-8.47684 c 2.77399,-0.99028 11.83811,-6.17521 11.84862,-6.77775 0.01,-0.57562 -7.8933,-5.49051 -10.74213,-6.68026 -5.35219,-2.23521 -10.85651,-0.85994 -12.97802,3.2426 -2.0553,3.97451 -0.008,8.56506 4.64717,10.42143 2.3934,0.95438 4.11103,0.9054 7.22436,-0.20602 z m 1.10649,-33.33151 c 3.21293,-1.3418 10.74596,-6.13275 10.75448,-6.83976 0.0117,-0.97309 -10.76353,-6.81482 -13.38802,-7.25822 -3.27786,-0.55379 -8.00273,1.21033 -9.54472,3.56371 -2.33895,3.56969 -0.53708,9.3426 3.41438,10.93917 2.35731,0.95246 5.90632,0.7885 8.76388,-0.4049 z m 58.21671,49.50317 c -5.62969,-1.22135 -10.28694,-2.72889 -16.87367,-5.46196 l -5.12653,-2.12717 v -7.32659 c 0,-4.02962 0.16488,-7.32658 0.3664,-7.32658 0.20152,0 3.53868,1.59192 7.4159,3.5376 11.27118,5.65615 16.94084,7.30869 23.54548,6.86287 9.84244,-0.66438 16.04838,-5.10267 16.04838,-11.4773 0,-2.19404 -0.49959,-3.15292 -2.76595,-5.30886 -3.63512,-3.458 -8.13637,-4.92802 -15.08979,-4.92802 -6.42042,0 -11.72551,1.55095 -22.62613,6.61477 l -6.89429,3.2027 v -16.55814 -16.55815 l 5.48008,2.55058 c 11.42759,5.31873 15.90115,6.80713 21.4985,7.1528 11.55424,0.71354 20.39758,-4.12193 20.39758,-11.15324 0,-5.29277 -6.7655,-9.81355 -15.63613,-10.44824 -6.12661,-0.43836 -13.48359,1.74634 -24.17596,7.17919 l -7.56407,3.84334 v -7.39847 -7.39847 l 5.12653,-2.32682 c 11.32399,-5.13973 18.88534,-6.7713 31.42002,-6.77977 9.63937,-0.007 16.57316,1.35615 23.45821,4.61012 10.28266,4.85972 14.92965,10.55701 14.94193,18.31903 0.0103,6.54213 -3.12081,11.53803 -10.59997,16.91278 l -1.76777,1.27037 1.76142,1.18471 c 3.58381,2.41044 7.2074,6.10443 9.0169,9.1921 2.63438,4.49524 2.62307,10.62199 -0.0279,15.14562 -3.96144,6.75968 -12.33323,12.05374 -23.1689,14.65128 -7.13246,1.7098 -21.08795,1.88222 -28.16021,0.34792 z M 488.34389,280.745 v -2.6582 h 3.38281 3.38282 v 0.43555 0.43554 h -1.74805 -1.74805 v 2.22266 2.22266 h -1.63476 -1.63477 z m 0,3.4375 v -2.6582 h 1.63477 1.63476 v 2.6582 2.65821 h -1.63476 -1.63477 z m 0,3.4375 v -2.6582 h 1.63477 1.63476 v 2.6582 2.65821 h -1.63476 -1.63477 z m 0,3.75 v -2.6582 h 1.63477 1.63476 v 2.6582 2.65821 h -1.63476 -1.63477 z m 0,3.75 v -2.6582 h 1.63477 1.63476 v 2.6582 2.65821 h -1.63476 -1.63477 z m 0,3.4375 v -2.6582 h 1.63477 1.63476 v 2.6582 2.65821 h -1.63476 -1.63477 z m 0,4.0625 v -2.6582 h 1.63477 1.63476 v 2.6582 2.65821 h -1.63476 -1.63477 z m 0,4.0625 v -2.6582 h 1.63477 1.63476 v 2.6582 2.65821 h -1.63476 -1.63477 z m 0,4.0625 v -2.6582 h 1.63477 1.63476 l -6e-5,2.43652 c -6e-5,2.22725 -10e-4,2.63134 -0.01,2.82227 l -0.003,0.0576 h -1.62847 -1.62846 z m -10.57042,13.84098 c -0.0324,-0.0324 -0.0589,-10.31418 -0.0589,-22.84838 V 278.94813 H 464.3101 450.90565 l 0.0595,-1.2466 c 0.21706,-4.54692 1.35652,-7.61592 3.63119,-9.78015 1.68646,-1.60456 3.89504,-2.50508 6.76635,-2.75886 0.67624,-0.0598 21.14204,-0.0901 61.14264,-0.0906 l 60.12618,-7.6e-4 v 6.62227 6.62228 l -0.28727,0.0939 c -0.15799,0.0516 -0.74467,0.18176 -1.30372,0.28913 l -1.01647,0.19522 -20.63868,0.0492 -20.63868,0.0492 -0.40392,0.18686 c -0.76471,0.35376 -1.24846,1.02913 -1.56433,2.18396 -0.19385,0.7087 -0.21404,3.30766 -0.0314,4.03733 0.28337,1.13193 0.81788,1.8841 1.59396,2.24306 l 0.40565,0.18762 20.10835,0.0493 c 18.61317,0.0457 20.16421,0.0607 20.85965,0.20258 0.98571,0.20104 1.68688,0.37875 2.36461,0.59928 l 0.55265,0.17983 -0.0223,17.37469 -0.0223,17.3747 -0.48613,0.16607 c -0.73349,0.25058 -1.70737,0.48512 -2.74004,0.65989 -0.87236,0.14764 -2.51614,0.15873 -27.37829,0.18473 l -26.45022,0.0277 7.1e-4,-0.8643 c 4.4e-4,-0.47536 0.0416,-1.22227 0.0915,-1.65979 0.67355,-5.90008 3.80333,-9.5256 9.33846,-10.81762 2.21421,-0.51685 0.84991,-0.48441 22.56586,-0.53659 l 19.93157,-0.0479 0.53033,-0.26516 c 0.98269,-0.49134 1.46999,-1.4506 1.65374,-3.25539 0.22549,-2.21468 -0.29675,-4.28575 -1.26032,-4.99814 -0.64868,-0.4796 0.53688,-0.45266 -19.96045,-0.4535 -11.86297,-4.4e-4 -19.43329,-0.0342 -20.20609,-0.0899 -4.47159,-0.32239 -8.12986,-2.17782 -11.10491,-5.63229 -1.93452,-2.24626 -3.14678,-4.55118 -3.87134,-7.36074 -0.4865,-1.88647 -0.58037,-2.73418 -0.57723,-5.21271 0.003,-2.11976 0.0964,-3.24878 0.35535,-4.28049 l 0.0571,-0.22732 h -15.74105 -15.74105 l -0.0254,17.96494 c -0.0238,16.85413 -0.0352,18.01411 -0.18379,18.76042 -1.11002,5.57562 -4.89701,8.41112 -11.85912,8.87949 -1.58826,0.10685 -1.67751,0.10853 -1.75304,0.033 z M 410.5023,310.7211 c 2.001,0 3.0016,-1.5009 3.0016,-4.5023 0,-3.0013 -1.0006,-4.5022 -3.0016,-4.5022 h -43.7516 v 9.0045 z m -39.0186,-45.714 37.9797,0.1153 c 5.2334,0 9.3892,1.6932 12.4677,5.0794 2.7703,3.0782 4.1555,6.8494 4.1555,11.3131 0,5.5409 -2.0392,9.8507 -6.1183,12.9291 4.8487,3.0013 7.2729,7.5804 7.2729,13.7373 0,4.4637 -1.4238,8.2346 -4.2712,11.313 -3.0785,3.3863 -7.2343,5.0794 -12.4677,5.0794 h -35.0934 v 0.1154 h -9.0043 c -8.9274,0 -13.4297,-4.3098 -13.5065,-12.9291 v -23.8961 l 56.5653,0.1154 c 2.001,0 3.0014,-1.5007 3.0014,-4.502 0,-3.0016 -1.0004,-4.5022 -3.0014,-4.5022 l -37.9797,0.1153 c -12.3134,-0.1539 -18.5088,-4.8484 -18.5856,-14.0833 z m 222.075,41.2267 c 0,5.0086 -1.5028,9.2854 -4.5079,12.8298 -3.2364,3.6986 -7.3203,5.5481 -12.2519,5.5481 h -51.3194 c 0,-9.2467 4.9316,-13.8703 14.7948,-13.8703 h 36.5246 c 1.9264,0 2.8896,-1.5024 2.8896,-4.5076 0,-3.0051 -0.9632,-4.5079 -2.8896,-4.5079 h -37.3336 c -4.9316,0 -9.0155,-1.8491 -12.2518,-5.5481 -3.0825,-3.4675 -4.6236,-7.7057 -4.6236,-12.7142 0,-5.0085 1.5797,-9.3236 4.7391,-12.9453 3.1591,-3.6217 7.2047,-5.4325 12.1363,-5.4325 h 51.3194 c 0,9.2467 -4.3538,13.8702 -13.0609,13.8702 h -38.2585 c -1.9264,0 -2.8896,1.5024 -2.8896,4.5076 0,2.9283 0.9632,4.3924 2.8896,4.3924 h 37.3336 c 4.9316,0 9.0155,1.8491 12.2519,5.5477 3.0051,3.5448 4.5079,7.8212 4.5079,12.8301 z m -42.7988,-41.148 c 0,9.2467 -4.4697,13.8702 -13.4079,13.8702 h -45.7385 v 33.7505 c 0,7.9368 -4.6236,11.9052 -13.8703,11.9052 V 278.956 h -26.8155 c 0,-9.2471 4.007,-13.8702 12.0207,-13.8702 z m -104.5073,59.5259 c -9.2469,0 -13.8702,-3.8528 -13.8702,-11.5585 v -47.9676 c 9.2469,0 13.8702,3.8143 13.8702,11.4429 z m -185.9185,-1.434 c 1.6348,0 2.9603,1.3252 2.9603,2.9599 0,1.6347 -1.3255,2.9599 -2.9603,2.9599 -1.6347,0 -2.9599,-1.3252 -2.9599,-2.9599 0,-1.6347 1.3252,-2.9599 2.9599,-2.9599 z m 12.2451,-1.9103 c 2.6896,0 4.87,2.1804 4.87,4.8702 0,2.6895 -2.1804,4.8699 -4.87,4.8699 -2.6898,0 -4.8702,-2.1804 -4.8702,-4.8699 0,-2.6898 2.1804,-4.8702 4.8702,-4.8702 z m -11.207,-33.3454 c 1.6271,-0.0487 2.9857,1.2309 3.0345,2.8579 0.0487,1.6271 -1.2305,2.9858 -2.8579,3.0345 -1.6271,0.0488 -2.9857,-1.2305 -3.0345,-2.8576 -0.0488,-1.6271 1.2308,-2.9857 2.8579,-3.0348 z m 12.1303,-2.2668 c 2.677,-0.0802 4.9124,2.0248 4.9926,4.7018 0.0806,2.677 -2.0245,4.9124 -4.7015,4.9927 -2.677,0.0805 -4.9124,-2.0245 -4.9929,-4.7016 -0.0803,-2.6773 2.0247,-4.9124 4.7018,-4.9929 z m 27.2253,22.0885 c 7.9786,4.4425 13.0476,10.763 13.0476,17.9786 0,7.9986 -6.2527,14.8855 -15.8248,19.3005 -8.8751,4.0937 -20.2878,5.8418 -31.7147,4.6034 -8.7854,-1.0139 -16.8763,-3.564 -24.1361,-6.7769 -6.7603,-2.9921 -12.9312,-6.5986 -18.3582,-10.107 -5.4787,2.8046 -10.7456,5.319 -15.5051,7.0341 -4.4831,1.615 -8.5787,2.5219 -12.0433,2.2546 -5.1338,-0.5569 -9.4951,-2.7987 -12.477,-5.9118 -2.8465,-2.9722 -4.5158,-6.8499 -4.4497,-10.9989 0.0658,-4.1493 1.8528,-7.995 4.7903,-10.9305 2.6531,-2.6511 6.2959,-4.6486 10.5552,-5.4701 -4.0865,-0.7804 -7.5972,-2.6639 -10.1623,-5.1859 -2.9217,-2.8726 -4.699,-6.6826 -4.7572,-10.8143 -0.0582,-4.1316 1.6055,-8.0127 4.4415,-11.0221 2.9639,-3.1452 7.2739,-5.4593 12.3769,-6.1183 3.6743,-0.6602 7.8946,-0.0183 12.4915,1.4282 4.8429,1.524 10.1623,3.9536 15.6138,6.7167 5.5496,-3.7476 11.7239,-7.5543 18.3614,-10.64 7.0609,-3.2826 14.7758,-5.7875 22.8464,-6.4628 11.2724,-1.4572 22.6083,0.0301 31.5151,3.8833 9.6048,4.1552 16.0103,10.836 16.2492,18.7969 0.2185,7.2864 -4.8047,13.8019 -12.8605,18.4423 z M 212.9394,291.912 c -7.0655,-4.5033 -12.5995,-7.7702 -16.2803,-7.1391 -4.6093,0.3344 -8.0987,3.7757 -8.0359,7.7173 0.0632,3.9418 3.657,7.2166 8.2728,7.3141 3.8025,0.3448 9.276,-3.1354 16.0434,-7.8923 z m 25.5273,-0.9478 c 10.7911,5.6468 21.1075,10.5974 28.1949,10.3049 10.1983,0.2117 18.9553,-4.823 18.7815,-11.2531 -0.1737,-6.4298 -9.1574,-10.9867 -19.2978,-10.2578 -7.1904,0.4083 -17.2775,5.4427 -27.6786,11.206 z m -25.8022,34.3468 c -6.9568,-4.7333 -12.4136,-8.1795 -16.1274,-7.6567 -4.6368,0.1967 -8.2433,3.546 -8.299,7.5046 -0.0556,3.9586 3.4535,7.3544 8.0841,7.5913 3.8067,0.461 9.4054,-2.8681 16.3423,-7.4392 z m 25.653,-0.1822 c 10.6622,5.993 20.869,11.2734 27.9921,11.1932 10.2309,0.5199 19.1728,-4.2704 19.1921,-10.7299 0.019,-6.4599 -8.8614,-11.3048 -19.0626,-10.8781 -7.23,0.193 -17.5075,4.9424 -28.1216,10.4148 z m 342.0544,10.1556 h 12.1864 v 2.8627 h -4.3778 v 11.8336 h -3.4172 v -11.8336 h -4.3914 z m 13.9504,0 h 3.4172 v 14.6963 h -3.4172 z m -32.2586,8.7325 v 0.8835 h -7.4993 c 0.0706,1.2467 0.4099,2.1974 1.0179,2.8494 0.6083,0.6551 1.4483,0.9811 2.5234,0.9811 0.6316,0 1.2399,-0.0842 1.8278,-0.2554 0.5879,-0.1715 1.1693,-0.4266 1.7473,-0.7694 v 1.7136 c -0.5848,0.2752 -1.1829,0.487 -1.7977,0.6281 -0.6115,0.1446 -1.2331,0.2186 -1.8647,0.2186 -1.5894,0 -2.8426,-0.5108 -3.7664,-1.5355 -0.9207,-1.0248 -1.381,-2.4092 -1.381,-4.1531 0,-1.8076 0.4368,-3.2388 1.3139,-4.2973 0.8767,-1.0616 2.0593,-1.5891 3.5478,-1.5891 1.334,0 2.389,0.4771 3.1652,1.4312 0.7761,0.9544 1.1658,2.2513 1.1658,3.8943 z m -1.633,-0.5344 c -0.0133,-0.991 -0.2619,-1.7807 -0.7492,-2.372 -0.4839,-0.5879 -1.129,-0.8836 -1.9287,-0.8836 -0.9105,0 -1.6429,0.2855 -2.1906,0.8567 -0.5476,0.5677 -0.86,1.3742 -0.9408,2.4091 z m 12.5595,-0.1545 v 6.6527 h -1.6328 v -6.5954 c 0,-1.0417 -0.1848,-1.8247 -0.551,-2.342 -0.3697,-0.5173 -0.9173,-0.7795 -1.6464,-0.7795 -0.8804,0 -1.5724,0.3124 -2.0798,0.9374 -0.5108,0.6216 -0.7628,1.4717 -0.7628,2.5503 v 6.2292 h -1.6463 v -11.024 h 1.6463 v 1.7102 c 0.3864,-0.6619 0.8433,-1.1557 1.3709,-1.4851 0.5275,-0.3291 1.1423,-0.4904 1.8379,-0.4904 1.1322,0 1.9956,0.3898 2.5838,1.1758 0.5845,0.7829 0.8802,1.9355 0.8802,3.4608 z m -115.9504,-8.0436 h 1.7944 v 14.6963 h -1.7944 z m 13.527,8.0436 v 6.6527 h -1.6328 v -6.5954 c 0,-1.0417 -0.1848,-1.8247 -0.551,-2.342 -0.3697,-0.5173 -0.9173,-0.7795 -1.6464,-0.7795 -0.8804,0 -1.5724,0.3124 -2.0798,0.9374 -0.5108,0.6216 -0.7628,1.4717 -0.7628,2.5503 v 6.2292 h -1.6463 v -11.024 h 1.6463 v 1.7102 c 0.3864,-0.6619 0.8433,-1.1557 1.3709,-1.4851 0.5275,-0.3291 1.1423,-0.4904 1.8379,-0.4904 1.1322,0 1.9956,0.3898 2.5838,1.1758 0.5845,0.7829 0.8802,1.9355 0.8802,3.4608 z m 4.8617,-7.5027 v 3.1314 h 3.3568 v 1.408 h -3.3568 v 5.9839 c 0,0.9006 0.1111,1.4749 0.3294,1.7337 0.2216,0.2554 0.6687,0.383 1.3439,0.383 h 1.6835 v 1.5154 h -1.6835 c -1.2532,0 -2.1201,-0.2622 -2.5971,-0.783 -0.4805,-0.5207 -0.7192,-1.4714 -0.7192,-2.8491 v -5.9839 h -1.1894 v -1.408 h 1.1894 v -3.1314 z m 13.9773,8.1916 v 0.8835 h -7.4993 c 0.0706,1.2467 0.4099,2.1974 1.0179,2.8494 0.6083,0.6551 1.4482,0.9811 2.5234,0.9811 0.6316,0 1.2399,-0.0842 1.8278,-0.2554 0.5879,-0.1715 1.1693,-0.4266 1.7473,-0.7694 v 1.7136 c -0.5848,0.2752 -1.1829,0.487 -1.7978,0.6281 -0.6114,0.1446 -1.233,0.2186 -1.8646,0.2186 -1.5894,0 -2.8426,-0.5108 -3.7664,-1.5355 -0.9207,-1.0248 -1.381,-2.4092 -1.381,-4.1531 0,-1.8076 0.4368,-3.2388 1.3138,-4.2973 0.8768,-1.0616 2.0594,-1.5891 3.5479,-1.5891 1.334,0 2.389,0.4771 3.1651,1.4312 0.7762,0.9544 1.1659,2.2513 1.1659,3.8943 z m -1.633,-0.5344 c -0.0133,-0.991 -0.2619,-1.7807 -0.7492,-2.372 -0.4839,-0.5879 -1.129,-0.8836 -1.9287,-0.8836 -0.9105,0 -1.643,0.2855 -2.1906,0.8567 -0.5477,0.5677 -0.86,1.3742 -0.9408,2.4091 z m 10.836,0.8569 c 0,-1.3104 -0.2455,-2.3283 -0.7325,-3.0509 -0.4907,-0.7223 -1.1727,-1.0817 -2.0531,-1.0817 -0.8734,0 -1.5523,0.3594 -2.0359,1.0817 -0.4872,0.7226 -0.7293,1.7405 -0.7293,3.0509 0,1.3071 0.2421,2.3216 0.7293,3.0442 0.4836,0.7188 1.1625,1.0817 2.0359,1.0817 0.8804,0 1.5624,-0.3629 2.0531,-1.0817 0.487,-0.7226 0.7325,-1.7371 0.7325,-3.0442 z m 1.6361,4.2738 c 0,1.8749 -0.3764,3.2726 -1.129,4.1865 -0.7526,0.9173 -1.9015,1.3743 -3.4506,1.3743 -0.5712,0 -1.1086,-0.0471 -1.6194,-0.1412 -0.5074,-0.0975 -1.0012,-0.2421 -1.4817,-0.4402 v -1.7606 c 0.4805,0.2888 0.9541,0.5006 1.4179,0.6383 0.4671,0.1378 0.9442,0.2084 1.4278,0.2084 1.0687,0 1.8717,-0.3124 2.4024,-0.9306 0.5309,-0.6217 0.7965,-1.5591 0.7965,-2.8123 v -0.8938 c -0.3328,0.6483 -0.7628,1.1356 -1.2903,1.4548 -0.5242,0.3226 -1.1526,0.4839 -1.8882,0.4839 -1.2197,0 -2.2008,-0.5142 -2.9435,-1.5455 -0.7424,-1.0315 -1.112,-2.3958 -1.112,-4.0958 0,-1.707 0.3696,-3.0744 1.112,-4.1025 0.7427,-1.0316 1.7238,-1.5455 2.9435,-1.5455 0.7356,0 1.364,0.1579 1.8882,0.4805 0.5275,0.3226 0.9575,0.8064 1.2903,1.4581 v -1.6733 h 1.6361 z m 9.1055,-7.9631 c -0.1848,-0.1207 -0.3867,-0.2049 -0.6015,-0.2619 -0.2152,-0.0572 -0.4536,-0.0842 -0.709,-0.0842 -0.9241,0 -1.633,0.3328 -2.1268,0.9981 -0.4907,0.6684 -0.7359,1.6228 -0.7359,2.8692 v 5.8094 h -1.6463 v -11.024 h 1.6463 v 1.7102 c 0.3393,-0.6684 0.7864,-1.1659 1.3374,-1.4882 0.5508,-0.326 1.2161,-0.4873 1.999,-0.4873 0.1108,0 0.2353,0.007 0.373,0.0235 0.1378,0.0168 0.2889,0.0403 0.4536,0.074 z m 6.2124,3.79 c -1.3204,0 -2.2343,0.1647 -2.7417,0.5008 -0.5108,0.336 -0.7628,0.9071 -0.7628,1.7136 0,0.6415 0.1883,1.1523 0.5712,1.5287 0.3796,0.3796 0.8972,0.5678 1.5523,0.5678 0.9071,0 1.633,-0.3563 2.1773,-1.0684 0.5442,-0.7123 0.8163,-1.66 0.8163,-2.8392 v -0.4033 z m 3.2457,-0.7492 v 6.2898 h -1.6331 v -1.6733 c -0.3662,0.6687 -0.8297,1.1625 -1.3841,1.4816 -0.5545,0.3192 -1.2331,0.4774 -2.0396,0.4774 -1.0179,0 -1.8243,-0.3161 -2.4224,-0.951 -0.5982,-0.6316 -0.8972,-1.4817 -0.8972,-2.5436 0,-1.2395 0.373,-2.177 1.1188,-2.8054 0.7427,-0.6316 1.8581,-0.9442 3.3398,-0.9442 h 2.2847 v -0.178 c 0,-0.8331 -0.2452,-1.4783 -0.739,-1.9353 -0.4906,-0.4535 -1.1829,-0.682 -2.0766,-0.682 -0.5644,0 -1.1155,0.074 -1.6529,0.2251 -0.5377,0.1511 -1.0551,0.3762 -1.5557,0.6786 v -1.6733 c 0.5982,-0.2551 1.1759,-0.4467 1.7371,-0.5743 0.561,-0.1278 1.1086,-0.1916 1.6396,-0.1916 1.438,0 2.5098,0.4133 3.2187,1.2399 0.709,0.8266 1.0619,2.0798 1.0619,3.7596 z m 3.3599,-9.0281 h 1.6228 v 15.3179 h -1.6228 z m 13.5235,9.3541 v 0.8835 h -7.4993 c 0.0705,1.2467 0.4099,2.1974 1.0179,2.8494 0.6083,0.6551 1.4482,0.9811 2.5234,0.9811 0.6315,0 1.2399,-0.0842 1.8278,-0.2554 0.5879,-0.1715 1.1693,-0.4266 1.7472,-0.7694 v 1.7136 c -0.5847,0.2752 -1.1829,0.487 -1.7977,0.6281 -0.6114,0.1446 -1.2331,0.2186 -1.8646,0.2186 -1.5894,0 -2.8426,-0.5108 -3.7664,-1.5355 -0.9207,-1.0248 -1.3811,-2.4092 -1.3811,-4.1531 0,-1.8076 0.4369,-3.2388 1.3139,-4.2973 0.8768,-1.0616 2.0594,-1.5891 3.5479,-1.5891 1.3339,0 2.389,0.4771 3.1651,1.4312 0.7761,0.9544 1.1659,2.2513 1.1659,3.8943 z m -1.633,-0.5344 c -0.0134,-0.991 -0.262,-1.7807 -0.7492,-2.372 -0.4839,-0.5879 -1.1291,-0.8836 -1.9287,-0.8836 -0.9105,0 -1.643,0.2855 -2.1906,0.8567 -0.5477,0.5677 -0.8601,1.3742 -0.9409,2.4091 z m 10.631,-4.2032 v 1.7136 c -0.4603,-0.262 -0.9374,-0.4604 -1.4349,-0.5914 -0.4938,-0.1309 -1.008,-0.1947 -1.5386,-0.1947 -0.8065,0 -1.4145,0.1378 -1.8213,0.4133 -0.4065,0.2752 -0.6114,0.6885 -0.6114,1.2396 0,0.4201 0.148,0.7495 0.4402,0.9879 0.2923,0.2418 0.8736,0.4705 1.747,0.6854 l 0.5511,0.1377 c 1.1593,0.2756 1.9856,0.6653 2.4695,1.1659 0.4873,0.504 0.7291,1.2028 0.7291,2.1033 0,1.0214 -0.3663,1.8346 -1.0919,2.4293 -0.7291,0.5981 -1.7303,0.8972 -3.0039,0.8972 -0.5307,0 -1.0851,-0.0573 -1.6631,-0.1715 -0.5777,-0.1176 -1.186,-0.2889 -1.821,-0.5173 v -1.8715 c 0.6047,0.3493 1.1962,0.6081 1.7807,0.7827 0.5846,0.1749 1.1625,0.2622 1.7337,0.2622 0.7662,0 1.3575,-0.148 1.7708,-0.4402 0.4133,-0.2923 0.6217,-0.7022 0.6217,-1.2331 0,-0.4938 -0.1514,-0.8702 -0.4505,-1.1322 -0.2956,-0.2622 -0.9507,-0.5176 -1.9621,-0.7594 l -0.561,-0.1479 c -1.0114,-0.235 -1.7405,-0.5981 -2.1909,-1.0851 -0.4501,-0.4907 -0.6718,-1.1625 -0.6718,-2.016 0,-1.035 0.3291,-1.8346 0.991,-2.399 0.6653,-0.5644 1.6027,-0.8467 2.8157,-0.8467 0.6049,0 1.1726,0.0471 1.7036,0.1477 0.5309,0.0975 1.0213,0.2455 1.4683,0.4402 z m -182.8496,-3.511 v 1.9386 c -0.6753,-0.3628 -1.317,-0.6315 -1.9219,-0.8098 -0.6013,-0.1746 -1.1827,-0.2654 -1.7402,-0.2654 -0.978,0 -1.7306,0.2118 -2.2615,0.6316 -0.5273,0.4201 -0.7895,1.0182 -0.7895,1.7909 0,0.6486 0.1747,1.139 0.5242,1.4718 0.3529,0.3325 1.0213,0.5978 2.0058,0.803 l 1.0717,0.2452 c 1.3374,0.2821 2.3253,0.7796 2.9569,1.4919 0.6349,0.7121 0.9507,1.6631 0.9507,2.859 0,1.4247 -0.4266,2.5033 -1.2832,3.2392 -0.857,0.7359 -2.117,1.1021 -3.7766,1.1021 -0.6285,0 -1.2969,-0.0808 -2.0027,-0.2353 -0.7056,-0.1579 -1.4346,-0.3931 -2.1906,-0.699 v -2.0495 c 0.729,0.4536 1.4414,0.7963 2.137,1.0248 0.6953,0.2284 1.3808,0.3427 2.0563,0.3427 1.0179,0 1.8042,-0.2217 2.3621,-0.6687 0.5575,-0.4468 0.8365,-1.0817 0.8365,-1.9083 0,-0.7223 -0.1982,-1.2869 -0.5981,-1.6934 -0.4031,-0.4065 -1.0585,-0.7124 -1.969,-0.9173 l -1.0851,-0.2353 c -1.3374,-0.2956 -2.3048,-0.7557 -2.8964,-1.3875 -0.5947,-0.6282 -0.8935,-1.5052 -0.8935,-2.6275 0,-1.3002 0.413,-2.3215 1.2362,-3.071 0.8232,-0.7492 1.959,-1.122 3.4004,-1.122 0.6248,0 1.2566,0.0604 1.9015,0.188 0.6418,0.1244 1.2971,0.3092 1.969,0.5612 z m 7.3615,4.4586 c -0.8702,0 -1.5621,0.3762 -2.0695,1.1356 -0.5109,0.7594 -0.7629,1.7974 -0.7629,3.1147 0,1.3204 0.252,2.3587 0.756,3.1178 0.5075,0.756 1.1997,1.1359 2.0764,1.1359 0.8737,0 1.5625,-0.3799 2.0699,-1.1424 0.504,-0.7628 0.756,-1.7977 0.756,-3.1113 0,-1.3037 -0.252,-2.342 -0.756,-3.1045 -0.5074,-0.7662 -1.1962,-1.1458 -2.0699,-1.1458 z m 0,-1.5355 c 1.4179,0 2.5333,0.5108 3.3432,1.5355 0.8096,1.0214 1.2164,2.4392 1.2164,4.2503 0,1.8042 -0.4068,3.2221 -1.2164,4.2469 -0.8099,1.0281 -1.9253,1.5423 -3.3432,1.5423 -1.4213,0 -2.5367,-0.5142 -3.3398,-1.5423 -0.803,-1.0248 -1.2061,-2.4427 -1.2061,-4.2469 0,-1.8111 0.4031,-3.2289 1.2061,-4.2503 0.8031,-1.0247 1.9185,-1.5355 3.3398,-1.5355 z m 7.2576,-4.0286 h 1.6228 v 15.3179 h -1.6228 z m 4.8716,10.9667 v -6.6728 h 1.6228 v 6.6056 c 0,1.0417 0.1848,1.8244 0.5511,2.3454 0.3696,0.5241 0.9173,0.7826 1.6463,0.7826 0.8839,0 1.5826,-0.3123 2.09,-0.934 0.5105,-0.6247 0.7625,-1.4749 0.7625,-2.55 v -6.2496 h 1.6365 v 11.024 h -1.6365 v -1.6935 c -0.3928,0.6687 -0.8498,1.1659 -1.3708,1.4919 -0.5241,0.326 -1.1321,0.4873 -1.8278,0.4873 -1.1355,0 -1.999,-0.3932 -2.5869,-1.1829 -0.5916,-0.7861 -0.8872,-1.9386 -0.8872,-3.454 z m 18.8022,-6.2493 v 1.6934 c -0.4603,-0.2823 -0.9207,-0.494 -1.3844,-0.6352 -0.4635,-0.1409 -0.9307,-0.2115 -1.4009,-0.2115 -1.0653,0 -1.8885,0.3697 -2.473,1.1155 -0.5814,0.7458 -0.8736,1.7909 -0.8736,3.1348 0,1.3473 0.2922,2.3922 0.8736,3.1348 0.5845,0.7458 1.4077,1.1189 2.473,1.1189 0.4702,0 0.9374,-0.0706 1.4009,-0.2118 0.4637,-0.1411 0.9241,-0.3529 1.3844,-0.6349 v 1.6732 c -0.4535,0.235 -0.9241,0.4131 -1.4145,0.5307 -0.4873,0.1176 -1.0046,0.1783 -1.5491,0.1783 -1.495,0 -2.6844,-0.521 -3.5649,-1.5659 -0.8767,-1.0414 -1.317,-2.4494 -1.317,-4.2233 0,-1.7977 0.4437,-3.2122 1.334,-4.2403 0.887,-1.0316 2.1033,-1.5455 3.6454,-1.5455 0.5074,0 0.9981,0.057 1.4785,0.1712 0.4771,0.1143 0.9406,0.2857 1.3876,0.5176 z m 2.8358,-0.4235 h 1.6228 v 11.024 h -1.6228 z m 0,-4.2939 h 1.6228 v 2.2949 h -1.6228 z m 8.8767,5.5641 c -0.8703,0 -1.5622,0.3762 -2.0696,1.1356 -0.5108,0.7594 -0.7628,1.7974 -0.7628,3.1147 0,1.3204 0.252,2.3587 0.756,3.1178 0.5074,0.756 1.1996,1.1359 2.0764,1.1359 0.8736,0 1.5624,-0.3799 2.0698,-1.1424 0.504,-0.7628 0.756,-1.7977 0.756,-3.1113 0,-1.3037 -0.252,-2.342 -0.756,-3.1045 -0.5074,-0.7662 -1.1962,-1.1458 -2.0698,-1.1458 z m 0,-1.5355 c 1.4179,0 2.5333,0.5108 3.3432,1.5355 0.8095,1.0214 1.2163,2.4392 1.2163,4.2503 0,1.8042 -0.4068,3.2221 -1.2163,4.2469 -0.8099,1.0281 -1.9253,1.5423 -3.3432,1.5423 -1.4213,0 -2.5368,-0.5142 -3.3398,-1.5423 -0.8031,-1.0248 -1.2062,-2.4427 -1.2062,-4.2469 0,-1.8111 0.4031,-3.2289 1.2062,-4.2503 0.803,-1.0247 1.9185,-1.5355 3.3398,-1.5355 z m 15.506,4.6366 v 6.6527 h -1.6327 v -6.5954 c 0,-1.0417 -0.1848,-1.8247 -0.5511,-2.342 -0.3696,-0.5173 -0.9173,-0.7795 -1.6463,-0.7795 -0.8805,0 -1.5724,0.3124 -2.0798,0.9374 -0.5108,0.6216 -0.7628,1.4717 -0.7628,2.5503 v 6.2292 h -1.6464 v -11.024 h 1.6464 v 1.7102 c 0.3864,-0.6619 0.8433,-1.1557 1.3708,-1.4851 0.5276,-0.3291 1.1424,-0.4904 1.838,-0.4904 1.1322,0 1.9956,0.3898 2.5838,1.1758 0.5845,0.7829 0.8801,1.9355 0.8801,3.4608 z m 11.7329,0.6889 v 0.8835 h -7.4993 c 0.0706,1.2467 0.4099,2.1974 1.0179,2.8494 0.6083,0.6551 1.4482,0.9811 2.5234,0.9811 0.6316,0 1.2399,-0.0842 1.8278,-0.2554 0.5879,-0.1715 1.1693,-0.4266 1.7473,-0.7694 v 1.7136 c -0.5848,0.2752 -1.1829,0.487 -1.7978,0.6281 -0.6114,0.1446 -1.233,0.2186 -1.8646,0.2186 -1.5894,0 -2.8426,-0.5108 -3.7664,-1.5355 -0.9207,-1.0248 -1.381,-2.4092 -1.381,-4.1531 0,-1.8076 0.4368,-3.2388 1.3138,-4.2973 0.8768,-1.0616 2.0594,-1.5891 3.5479,-1.5891 1.334,0 2.389,0.4771 3.1651,1.4312 0.7762,0.9544 1.1659,2.2513 1.1659,3.8943 z m -1.633,-0.5344 c -0.0133,-0.991 -0.2619,-1.7807 -0.7492,-2.372 -0.4839,-0.5879 -1.129,-0.8836 -1.9287,-0.8836 -0.9105,0 -1.643,0.2855 -2.1906,0.8567 -0.5477,0.5677 -0.86,1.3742 -0.9408,2.4091 z m 10.631,-4.2032 v 1.7136 c -0.4603,-0.262 -0.9374,-0.4604 -1.4349,-0.5914 -0.4937,-0.1309 -1.008,-0.1947 -1.5386,-0.1947 -0.8065,0 -1.4145,0.1378 -1.8213,0.4133 -0.4064,0.2752 -0.6114,0.6885 -0.6114,1.2396 0,0.4201 0.148,0.7495 0.4402,0.9879 0.2923,0.2418 0.8737,0.4705 1.747,0.6854 l 0.5511,0.1377 c 1.1593,0.2756 1.9856,0.6653 2.4695,1.1659 0.4873,0.504 0.7291,1.2028 0.7291,2.1033 0,1.0214 -0.3662,1.8346 -1.0919,2.4293 -0.7291,0.5981 -1.7303,0.8972 -3.0039,0.8972 -0.5306,0 -1.0851,-0.0573 -1.6631,-0.1715 -0.5777,-0.1176 -1.186,-0.2889 -1.821,-0.5173 v -1.8715 c 0.6047,0.3493 1.1963,0.6081 1.7808,0.7827 0.5845,0.1749 1.1625,0.2622 1.7336,0.2622 0.7662,0 1.3576,-0.148 1.7708,-0.4402 0.4133,-0.2923 0.6217,-0.7022 0.6217,-1.2331 0,-0.4938 -0.1514,-0.8702 -0.4504,-1.1322 -0.2957,-0.2622 -0.9508,-0.5176 -1.9622,-0.7594 l -0.561,-0.1479 c -1.0114,-0.235 -1.7404,-0.5981 -2.1909,-1.0851 -0.4501,-0.4907 -0.6718,-1.1625 -0.6718,-2.016 0,-1.035 0.3291,-1.8346 0.991,-2.399 0.6653,-0.5644 1.6027,-0.8467 2.8157,-0.8467 0.6049,0 1.1727,0.0471 1.7036,0.1477 0.5309,0.0975 1.0213,0.2455 1.4683,0.4402 z"
           inkscape:connector-curvature="0" />
      </g>
      <path
         style="fill:#9cc42f;fill-opacity:1;stroke-width:0.00390625"
         d="m 254.08411,269.67573 9.9e-4,-0.82115 0.0644,-0.0189 c 1.29531,-0.37987 2.80711,-0.76782 4.11328,-1.05554 0.20173,-0.0444 0.2593,-0.057 0.41992,-0.0914 1.66184,-0.35618 3.28391,-0.63241 4.89844,-0.83419 0.41268,-0.0516 1.2363,-0.14673 1.27004,-0.14673 0.005,0 0.005,0.29386 0.005,1.89453 v 1.89453 h -5.38673 -5.38672 z"
         id="path5519"
         inkscape:connector-curvature="0" />
    </g>
  </g>
</svg>
